<?xml version="1.0" standalone="no"?><!DOCTYPE svg PUBLIC "-//W3C//DTD SVG 1.1//EN" "http://www.w3.org/Graphics/SVG/1.1/DTD/svg11.dtd"><svg t="1548558679196" class="icon" style="" viewBox="0 0 1024 1024" version="1.1" xmlns="http://www.w3.org/2000/svg" p-id="3188" xmlns:xlink="http://www.w3.org/1999/xlink" width="200" height="200"><defs><style type="text/css"></style></defs><path d="M876 904h-84V512c0-154.6-125.4-280-280-280S232 357.4 232 512v392h-84c-15.5 0-28 12.5-28 28s12.5 28 28 28h728c15.5 0 28-12.5 28-28s-12.5-28-28-28z m-420 0V540c0-15.5-12.5-28-28-28s-28 12.5-28 28v364H288V512c0-123.5 100.5-224 224-224s224 100.5 224 224v392H456zM512 176c15.5 0 28-12.5 28-28V92c0-15.5-12.5-28-28-28s-28 12.5-28 28v56c0 15.5 12.5 28 28 28zM195.8 291.4c10.9 10.9 28.7 10.9 39.6 0 10.9-10.9 10.9-28.7 0-39.6l-39.6-39.6c-10.9-10.9-28.7-10.9-39.6 0-10.9 10.9-10.9 28.7 0 39.6l39.6 39.6zM820 291.4l39.6-39.6c10.9-10.9 10.9-28.7 0-39.6s-28.7-10.9-39.6 0l-39.6 39.6c-10.9 10.9-10.9 28.7 0 39.6 10.9 10.9 28.7 10.9 39.6 0zM932 480h-56c-15.5 0-28 12.5-28 28s12.5 28 28 28h56c15.5 0 28-12.5 28-28s-12.5-28-28-28zM176 508c0-15.5-12.5-28-28-28H92c-15.5 0-28 12.5-28 28s12.5 28 28 28h56c15.5 0 28-12.5 28-28z" p-id="3189"></path></svg>