<?xml version="1.0" standalone="no"?><!DOCTYPE svg PUBLIC "-//W3C//DTD SVG 1.1//EN" "http://www.w3.org/Graphics/SVG/1.1/DTD/svg11.dtd"><svg t="1548558773267" class="icon" style="" viewBox="0 0 1024 1024" version="1.1" xmlns="http://www.w3.org/2000/svg" p-id="3478" xmlns:xlink="http://www.w3.org/1999/xlink" width="200" height="200"><defs><style type="text/css"></style></defs><path d="M762.076 927.64H273.101c-24.262 0-44-19.738-44-44V141.99c0-24.262 19.738-44 44-44h488.976c24.262 0 44 19.738 44 44v741.65c-0.001 24.261-19.739 44-44.001 44z m-468.975-64h448.976V161.99H293.101v701.65z" fill="" p-id="3479"></path><path d="M98.004 863.64h829.991v64H98.004zM285.101 768.577h466.477v64H285.101zM385.598 211.104h86.996V298.1h-86.996zM563.598 212.112h86.996v86.996h-86.996zM387.598 355.104h86.996V442.1h-86.996zM565.598 356.112h86.996v86.996h-86.996zM386.598 498.104h86.996V585.1h-86.996zM564.598 499.112h86.996v86.996h-86.996zM388.598 642.104h86.996V729.1h-86.996zM566.598 643.112h86.996v86.996h-86.996z" fill="" p-id="3480"></path></svg>